<svg xmlns="http://www.w3.org/2000/svg" xmlns:xlink="http://www.w3.org/1999/xlink" width="1280" height="800" viewBox="0 0 1280 800" role="img" aria-labelledby="title description">
  <title id="title">Capability-enhanced mockup of the speculative Cepheus Trader TUI</title>
  <desc id="description">The same docked ship market workspace and Hermes listing as the basic mockup, enhanced with a ship image, graphical meters, pointer targets, and graphics and audio capability indicators.</desc>
  <defs>
    <linearGradient id="space" x1="0" y1="0" x2="1" y2="1"><stop offset="0" stop-color="#06131f"/><stop offset="0.55" stop-color="#102b39"/><stop offset="1" stop-color="#051019"/></linearGradient>
    <linearGradient id="chrome" x1="0" y1="0" x2="0" y2="1"><stop offset="0" stop-color="#245c6d"/><stop offset="1" stop-color="#12313e"/></linearGradient>
    <filter id="shadow" x="-20%" y="-20%" width="140%" height="140%"><feDropShadow dx="7" dy="9" stdDeviation="7" flood-color="#000" flood-opacity="0.7"/></filter>
    <clipPath id="ship-image"><rect x="852" y="218" width="372" height="240" rx="5"/></clipPath>
    <style>
      .text { font-family: "DejaVu Sans Mono", "Liberation Mono", monospace; font-size: 18px; fill: #d9e9ef; }
      .ui { font-family: "DejaVu Sans", "Liberation Sans", sans-serif; font-size: 18px; fill: #d9e9ef; }
      .small { font-size: 15px; } .tiny { font-size: 13px; }
      .label { fill: #65e4f2; } .muted { fill: #8ca4ae; } .bright { fill: #fff; } .inverse { fill: #071019; }
      .accent { fill: #ffd65a; } .green { fill: #8ff0a4; }
      .stroke { stroke: #4ca8bc; stroke-width: 2; fill: none; }
    </style>
  </defs>
  <rect width="1280" height="800" fill="url(#space)"/>
  <circle cx="92" cy="93" r="1.5" fill="#b8dbe7"/><circle cx="1150" cy="110" r="1" fill="#b8dbe7"/><circle cx="1022" cy="696" r="1.5" fill="#b8dbe7"/><circle cx="61" cy="721" r="1" fill="#b8dbe7"/>
  <rect x="18" y="16" width="1244" height="58" rx="5" fill="#071723" stroke="#4ca8bc" stroke-width="2"/>
  <text x="36" y="52" class="text accent">CT://DOCKED</text>
  <rect x="205" y="26" width="128" height="38" rx="4" fill="#0b2634"/><text x="225" y="51" class="text small">1 DOCKED</text>
  <rect x="342" y="26" width="226" height="38" rx="4" fill="#246a7e" stroke="#7bedf7" stroke-width="2"/><text x="360" y="51" class="text small bright">2 SHIPYARD MARKET</text>
  <rect x="577" y="26" width="165" height="38" rx="4" fill="#0b2634"/><text x="596" y="51" class="text small">3 SHIP STATUS</text>
  <rect x="751" y="26" width="156" height="38" rx="4" fill="#0b2634"/><text x="770" y="51" class="text small">4 MESSAGES</text>
  <circle cx="895" cy="42" r="12" fill="#e34b59"/><text x="891" y="47" class="ui tiny bright">2</text>
  <text x="1050" y="51" class="text tiny label">MOUSE • JXL • AUDIO</text>
  <g opacity="0.62" filter="url(#shadow)">
    <rect x="30" y="126" width="676" height="594" rx="7" fill="#07131d" stroke="#356b79" stroke-width="2"/>
    <rect x="30" y="126" width="676" height="42" rx="7" fill="#153340"/><text x="48" y="153" class="text muted">PORT SERVICES — CASSILDA HIGHPORT</text>
    <text x="48" y="201" class="text muted">F  Refuel</text><text x="48" y="232" class="text muted">R  Repairs</text><text x="48" y="263" class="text muted">Y  Shipyard market</text>
    <text x="48" y="294" class="text muted">C  Crew exchange</text><text x="48" y="325" class="text muted">B  Bank</text>
  </g>
  <g filter="url(#shadow)"><rect x="176" y="94" width="1074" height="650" rx="7" fill="#08131d" stroke="#69e3ef" stroke-width="3"/><path d="M183 94h1060a7 7 0 0 1 7 7v37H176v-37a7 7 0 0 1 7-7z" fill="url(#chrome)"/></g>
  <text x="194" y="123" class="text bright">SHIPYARD MARKET</text><text x="566" y="123" class="text small muted">CASSILDA HIGHPORT / LOCAL LISTINGS</text>
  <rect x="1203" y="105" width="28" height="24" rx="3" fill="#71333c"/><text x="1210" y="123" class="text small bright">×</text>
  <line x1="510" y1="138" x2="510" y2="665" class="stroke"/><line x1="176" y1="665" x2="1250" y2="665" class="stroke"/>
  <text x="198" y="174" class="text small label">AVAILABLE CRAFT</text><text x="198" y="205" class="text tiny muted">DESIGN / CLASS       ROLE</text>
  <rect x="190" y="219" width="306" height="70" rx="4" fill="#d9edf2" stroke="#fff"/><rect x="190" y="219" width="5" height="70" fill="#ffd65a"/>
  <text x="207" y="247" class="text small inverse">&gt; 001 HERMES</text><text x="225" y="272" class="text tiny inverse">DISPATCH COURIER</text>
  <text x="207" y="319" class="text small muted">  018 WAYFARER</text><text x="225" y="344" class="text tiny muted">UTILITY CRAFT</text>
  <text x="207" y="384" class="text small muted">  024 PROTEUS</text><text x="225" y="409" class="text tiny muted">MINING MODULE BOAT</text>
  <text x="198" y="628" class="text tiny muted">↑/↓ SELECT   WHEEL SCROLL   CLICK OPEN</text>
  <text x="536" y="177" class="text accent">HERMES</text><text x="536" y="205" class="text small label">10-TON DISPATCH COURIER</text>
  <rect x="1100" y="156" width="124" height="31" rx="15" fill="#174b31" stroke="#4fbe78"/><text x="1117" y="177" class="ui small green">AVAILABLE</text>
  <rect x="852" y="218" width="372" height="240" rx="5" fill="#02070d" stroke="#4ca8bc" stroke-width="2"/>
  <!-- Self-contained fallback for viewers that block linked SVG resources. -->
  <g clip-path="url(#ship-image)">
    <circle cx="882" cy="281" r="1.3" fill="#d8f4ff"/><circle cx="1167" cy="256" r="1" fill="#d8f4ff"/>
    <circle cx="1076" cy="420" r="1.5" fill="#d8f4ff"/><circle cx="937" cy="397" r="1" fill="#d8f4ff"/>
    <ellipse cx="1038" cy="349" rx="129" ry="45" fill="#13384e" opacity="0.5"/>
    <polygon points="916,349 972,312 1118,319 1170,349 1118,379 972,386" fill="#1c6688" stroke="#72d7e9" stroke-width="3"/>
    <polygon points="963,317 999,279 1063,281 1093,320" fill="#e0b326" stroke="#ffe27b" stroke-width="3"/>
    <polygon points="963,381 999,419 1063,417 1093,378" fill="#b78c1b" stroke="#ffe27b" stroke-width="3"/>
    <polygon points="1094,322 1142,330 1182,349 1142,369 1094,377" fill="#d4a51e" stroke="#ffe27b" stroke-width="3"/>
    <rect x="936" y="329" width="43" height="40" rx="7" fill="#e8bd32" stroke="#ffe27b" stroke-width="3"/>
    <polygon points="1120,337 1150,349 1120,361" fill="#07131c" stroke="#85e8f3" stroke-width="2"/>
    <path d="M916 335l-32 14 32 14" fill="#2a7895" stroke="#72d7e9" stroke-width="3"/>
    <path d="M884 343l-21 6 21 6" fill="#6be4f1" opacity="0.8"/>
    <line x1="1003" y1="304" x2="1056" y2="304" stroke="#07131c" stroke-width="5"/>
    <circle cx="1160" cy="349" r="5" fill="#9df4ff"/>
  </g>
  <image x="852" y="218" width="372" height="240" preserveAspectRatio="xMidYMid slice" clip-path="url(#ship-image)" href="../../site/assets/ships/ship-001-hermes.webp" xlink:href="../../site/assets/ships/ship-001-hermes.webp"/>
  <rect x="866" y="231" width="86" height="25" rx="3" fill="#041018" fill-opacity="0.82"/><text x="876" y="249" class="text tiny label">GFX / JXL</text>
  <text x="866" y="448" class="text tiny bright">HERMES // CATALOG 001</text>
  <text x="536" y="249" class="text small label">CREW</text><text x="674" y="249" class="text small bright">2 PILOTS</text>
  <text x="536" y="281" class="text small label">CARGO</text><text x="674" y="281" class="text small bright">4.9 TONS</text>
  <text x="536" y="329" class="text small label">ENDURANCE</text><text x="674" y="329" class="text small bright">1 WEEK</text>
  <text x="536" y="377" class="text small label">JUMP</text><text x="674" y="377" class="text small bright">NONE</text>
  <text x="536" y="409" class="text small label">ARMAMENT</text><text x="674" y="409" class="text small bright">NONE</text>
  <text x="536" y="486" class="text small">Two-person cockpit; compact priority cargo hold.</text><text x="536" y="514" class="text small">Unarmed and non-jump-capable. Requires a parent</text>
  <text x="536" y="542" class="text small">ship or local base for interstellar transport.</text>
  <text x="536" y="578" class="text small label">ILLUSTRATIVE OFFER</text><text x="536" y="610" class="text bright">CR 428,000</text>
  <text x="735" y="586" class="text small muted">INSPECTION: CURRENT</text><text x="735" y="614" class="text small muted">SELLER: ORBITAL COURIER SURPLUS</text>
  <rect x="190" y="678" width="126" height="43" rx="5" fill="#e8f5f7" stroke="#fff" stroke-width="2"/><text x="215" y="705" class="text small inverse">[B] BUY</text>
  <rect x="329" y="678" width="171" height="43" rx="5" fill="#12303c" stroke="#4ca8bc"/><text x="352" y="705" class="text small">[C] COMPARE</text>
  <rect x="513" y="678" width="160" height="43" rx="5" fill="#12303c" stroke="#4ca8bc"/><text x="535" y="705" class="text small">[D] DETAILS</text>
  <rect x="686" y="678" width="161" height="43" rx="5" fill="#12303c" stroke="#4ca8bc"/><text x="708" y="705" class="text small">[I] INSPECT</text><text x="1082" y="705" class="text small">[ESC] CLOSE</text>
  <path d="M288 694l8 22 7-8 9 14 7-4-9-14 11-2z" fill="#fff" stroke="#071019" stroke-width="2"/>
  <rect x="18" y="760" width="1244" height="26" rx="3" fill="#0a1d28"/>
  <text x="30" y="779" class="text tiny muted">ENHANCED TIER • KEYBOARD + MOUSE • SHIP IMAGE • OPTIONAL AUDIO CUE ♫ • SAME GAME STATE AND ACTIONS AS BASIC VIEW</text>
</svg>
